<svg height="512" viewBox="0 0 64 64" width="512" xmlns="http://www.w3.org/2000/svg"><path d="m31 50h6v5h-6z" fill="#acabb1"/><path d="m3 32h28v23h-28z" fill="#003f8a"/><path d="m34 10h3v40h-3z" fill="#e0e0e2"/><path d="m4 10h26v4h-26z" fill="#003f8a"/><path d="m27 32h-23v-18h20z" fill="#2488ff"/><path d="m22 14h-18v18a18 18 0 0 1 18-18z" fill="#7cb8ff"/><path d="m31 32v7h-17l.06-7z" fill="#e0e0e2"/><path d="m61 50v3h-24v-3h4 18z" fill="#003f8a"/><circle cx="8" cy="55" fill="#2d2d30" r="5"/><path d="m34 55a5 5 0 1 1 -5-5 5.106 5.106 0 0 1 2 .41 5.029 5.029 0 0 1 3 4.59z" fill="#2d2d30"/><path d="m44 44h4v2h-4z" fill="#fff"/><circle cx="29" cy="55" fill="#e0e0e2" r="2"/><circle cx="8" cy="55" fill="#e0e0e2" r="2"/><path d="m5 11h9v1h-9z" fill="#7cb8ff"/><path d="m52 14h7v3h-7z" fill="#ff9811"/><path d="m41 14h7v3h-7z" fill="#ff9811"/><path d="m41 17h18v15h-18z" fill="#ffda44"/><path d="m44 26h4v2h-4z" fill="#fff"/><path d="m41 17h18v1h-18z" fill="#cc7400"/><path d="m52 17v2l-4 1v-3-3h4z" fill="#d80027"/><path d="m52 32h7v3h-7z" fill="#ff9811"/><path d="m41 32h7v3h-7z" fill="#ff9811"/><path d="m41 35h18v15h-18z" fill="#ffda44"/><path d="m44 44h4v2h-4z" fill="#fff"/><path d="m41 35h18v1h-18z" fill="#cc7400"/><path d="m52 35v2l-4 1v-3-3h4z" fill="#d80027"/></svg>