<svg id="Capa_1" enable-background="new 0 0 512 512" height="512" viewBox="0 0 512 512" width="512" xmlns="http://www.w3.org/2000/svg"><path clip-rule="evenodd" d="m467.208 414.381v88.131c0 7.593-2.452 9.2-6.748 9.489h-176.22l-28.24-79.281 30.167-96.105 81.135-22.81c50.195 10.57 99.906 45.26 99.906 100.576z" fill="#f3eae6" fill-rule="evenodd"/><path clip-rule="evenodd" d="m339 334.83c50.232 10.571 99.909 45.263 99.909 100.572v76.597h15.04 6.513c4.293-.292 6.746-1.898 6.746-9.491v-88.132c0-55.309-49.706-90.001-99.909-100.572l-27.803 20.675z" fill="#e0d2ce" fill-rule="evenodd"/><path d="m395.233 433.946v78.054h-15.454v-78.054c0-4.276 3.462-7.727 7.727-7.727 4.275-.001 7.727 3.451 7.727 7.727z" fill="#e0d2ce"/><path clip-rule="evenodd" d="m227.76 512h-176.22c-4.327-.289-6.748-1.896-6.748-9.489v-88.131c0-55.872 50.669-90.706 101.401-100.896 33.175-4.09 66.165 18.195 79.991 24.562l29.816 94.674c-.876 2.946-31.104 73.85-28.24 79.28z" fill="#f3eae6" fill-rule="evenodd"/><path clip-rule="evenodd" d="m205.826 468.692c-.263.847-.467.905-.088 1.635l22.02 41.671h28.242 28.241l21.991-41.671c.409-.73.175-.788-.058-1.635l-29.029-96.688-21.145-18.543-21.144 18.543z" fill="#6bd9e7" fill-rule="evenodd"/><path clip-rule="evenodd" d="m217.94 338.042 16.916 33.962h21.144 21.144l15.206-35.393-35.415-41.778z" fill="#00c7dd" fill-rule="evenodd"/><path clip-rule="evenodd" d="m146.19 313.483 51.897 38.576c11.01 6.892 3.329 7.826 20.239-6.804l7.856-7.213 30.753-28.268c-.058 0-.117 0-.204 0-.234 0-.811-.219-.73 0 .935 2.522-29.818-31.597-29.818-31.597l-37.762 2.658c-15.303 11.622-36.74 28.56-42.318 32.619z" fill="#e0d2ce" fill-rule="evenodd"/><path clip-rule="evenodd" d="m256.935 309.774 29.234 26.837 9.404 8.644c16.91 14.63 9.229 13.696 20.239 6.804l51.488-38.255.496-.35c-5.695-4.147-27.978-21.756-43.34-33.378-.029.029-.117.117-.088.088.088-.088-38.2-.088-38.2-.088z" fill="#e0d2ce" fill-rule="evenodd"/><path d="m136.487 433.946v78.054h-15.454v-78.054c0-4.276 3.451-7.727 7.727-7.727 4.265-.001 7.727 3.451 7.727 7.727z" fill="#e0d2ce"/><g clip-rule="evenodd" fill-rule="evenodd"><path d="m256 372.004 29.029 96.688c.234.847.438.905.058 1.635l-21.991 41.671h21.144l21.991-41.671c.409-.73.175-.788-.058-1.635l-29.029-96.688z" fill="#00c7dd"/><path d="m242.04 323.47 20.589 22.456-2.774 10.922-3.855 15.156h21.144l9.024-35.393-29.233-26.837z" fill="#00b1cd"/><path d="m324.456 280.076-.088.088c.029-.03.059-.059.088-.088zm-67.521 29.698 23.86 21.902c4.001-1.08 8.148-2.424 12.441-4.03 18.691-6.979 36.36-18.076 51.868-31.684-6.951-5.402-14.369-11.155-20.648-15.886-.029.029-.058.058-.088.088-8.82 7.563-18.487 14.105-28.679 19.127-3.505 1.694-7.038 3.241-10.631 4.585-10.192 3.796-19.187 5.752-28.123 5.898z" fill="#b8acac"/><path d="m167.773 296.75c15.303 13.229 32.651 24.062 50.991 30.896 4.819 1.811 9.433 3.271 13.901 4.439l9.375-8.615 14.894-13.696c-.058 0-.117 0-.204 0-.234 0-.496 0-.73 0-9.258 0-18.516-1.957-29.059-5.899-3.592-1.343-7.155-2.891-10.631-4.585-9.9-4.877-19.304-11.155-27.89-18.456-6.366 4.819-13.755 10.572-20.647 15.916z" fill="#b8acac"/><path d="m372.03 155.967-17.377 28.18 15.303 24.909c14.69.204 31.307-14.922 31.307-29.757v-11.593c0-6.454-5.286-11.739-11.74-11.739z" fill="#f9a78a"/><path d="m110.707 167.706v11.593c0 14.835 16.647 29.961 31.337 29.757l22.429-25.727-24.503-27.362h-17.523c-6.454 0-11.74 5.286-11.74 11.739z" fill="#f9a78a"/><path d="m139.97 191.652c0 5.636.701 11.476 2.074 17.404 5.753 25.318 23.159 52.155 46.377 71.779 8.586 7.301 17.99 13.579 27.89 18.456 3.475 1.694 7.038 3.241 10.631 4.585 10.543 3.942 19.801 5.899 29.059 5.899h.73.204c8.937-.146 17.932-2.103 28.124-5.899 3.592-1.343 7.126-2.891 10.631-4.585 10.192-5.023 19.859-11.564 28.679-19.127 22.809-19.565 39.894-46.081 45.589-71.107 1.343-5.928 2.074-11.768 2.074-17.404v-35.685-25.378l-116.032-72.07-116.03 70.348v27.1z" fill="#ffd5bd"/><path d="m359.764 3.007c-79.203 32.239-223.357-33.583-219.794 125.86 83.759-54.316 181.595 23.362 232.061 1.723 4.205-1.811 8.09-4.322 11.594-7.622 31.891-37.641 30.08-141.921-23.861-119.961z" fill="#9d9696"/><path d="m216.924 235.163c0 47.424 79.846 47.424 79.846 0 0-4.41-3.621-8.001-8.002-8.001h-63.841c-4.411 0-8.003 3.591-8.003 8.001z" fill="#fbf8f8"/><path d="m218.501 246.055h76.692c1.022-3.3 1.577-6.921 1.577-10.892 0-4.41-3.621-8.001-8.002-8.001h-63.841c-4.41 0-8.002 3.592-8.002 8.001-.001 3.971.554 7.592 1.576 10.892z" fill="#f3eae6"/><path d="m330.151 201.756c0 5.636-.73 11.476-2.074 17.404-7.944 34.896-38.025 72.684-74.939 90.556.964.029 1.898.058 2.862.058h.73.204c8.937-.146 17.932-2.103 28.124-5.899 3.592-1.343 7.126-2.891 10.631-4.585 10.192-5.023 19.859-11.564 28.679-19.127l.088-.088c22.78-19.565 39.806-46.022 45.501-71.019 1.343-5.928 2.074-11.768 2.074-17.404v-35.685-25.377c-11.682 4.994-25.905 4.702-41.88 1.927v33.553z" fill="#fcbda4"/><path d="m339.146 9.11c14.223 22.632 11.536 69.647-4.03 98.557-2.278 4.234-4.819 8.089-7.652 11.418-4.819 4.556-10.309 7.563-16.413 9.345 6.6 1.635 12.967 3.037 19.1 4.088 15.975 2.774 30.198 3.066 41.88-1.927 4.205-1.811 8.09-4.322 11.594-7.622 31.892-37.641 30.081-141.922-23.86-119.962-6.484 2.628-13.406 4.613-20.619 6.103z" fill="#746e6e"/></g><path d="m220.108 182.034c-1.919 0-3.839-.732-5.303-2.196-3.738-3.738-9.821-3.74-13.563 0-2.929 2.928-7.678 2.928-10.606 0-2.929-2.929-2.929-7.678.001-10.607 9.586-9.585 25.188-9.586 34.774 0 2.93 2.929 2.93 7.678.001 10.607-1.465 1.463-3.385 2.196-5.304 2.196z" fill="#746e6e"/><path d="m316.054 182.034c-1.917 0-3.833-.73-5.297-2.191-3.748-3.737-9.842-3.737-13.59 0-2.933 2.927-7.68 2.92-10.606-.012s-2.92-7.681.013-10.606c9.588-9.567 25.189-9.567 34.777 0 2.933 2.925 2.938 7.674.013 10.606-1.466 1.468-3.388 2.203-5.31 2.203z" fill="#746e6e"/></svg>