<svg height="512" viewBox="0 0 512 512" width="512" xmlns="http://www.w3.org/2000/svg"><g id="Flat"><path d="m384 328v160h-256v-160l32-8 48-8 48 80 48-80 48 8 31.58 7.89z" fill="#d0d24b"/><path d="m384 328v160h-256v-18.02c96.03-18.77 188.31-61.6 255.58-142.09z" fill="#c7c934"/><path d="m80 424h48v-96c-27.7 4.616-48 20.581-48 48.662z" fill="#4d5e78"/><path d="m384 328v96h48v-47.338c0-28.081-20.3-44.046-48-48.662z" fill="#4d5e78"/><path d="m160 424h192v32h-192z" fill="#e0e0de"/><path d="m304 256v56l-48 80-48-80v-56z" fill="#fec9a3"/><path d="m128 328 32-8v168h-32z" fill="#e0e0de"/><path d="m352 320 32 8v160h-32z" fill="#e0e0de"/><path d="m80 424h48v64h-48z" fill="#fec9a3"/><path d="m384 424h48v64h-48z" fill="#fec9a3"/><path d="m304 256v29.66a71.984 71.984 0 0 1 -96 0v-29.66z" fill="#feb784"/><path d="m160 392v96h-32v-64z" fill="#d6d6d4"/><path d="m384 400v88h-32v-56z" fill="#d6d6d4"/><path d="m336 168h-8v48h8a24 24 0 0 0 0-48z" fill="#feb784"/><path d="m176.4 168h-.4a24.07 24.07 0 0 0 -24 24 24.071 24.071 0 0 0 24 24h8.48l-.48-48z" fill="#feb784"/><path d="m328 160v56a72 72 0 1 1 -144 0v-56z" fill="#fec9a3"/><path d="m328 160v56a72.017 72.017 0 0 1 -81.89 71.32 82.262 82.262 0 0 0 27.91-61.85v-36.66a82.189 82.189 0 0 0 -5.18-28.81z" fill="#fec093"/><path d="m344 128v16h-176v-16a87.99 87.99 0 0 1 143.08-68.62 86.688 86.688 0 0 1 7.14 6.4 87.688 87.688 0 0 1 25.78 62.22z" fill="#ffa912"/><path d="m344 128v16h-151.18c43.32-20.55 83.56-48.23 118.26-84.62a86.688 86.688 0 0 1 7.14 6.4 87.688 87.688 0 0 1 25.78 62.22z" fill="#fa9f0c"/><g fill="#ffb531"><path d="m352.61 161.1-96.61 6.9-96.61-6.9a16.571 16.571 0 0 1 -15.39-16.529 16.571 16.571 0 0 1 16.571-16.571h190.858a16.571 16.571 0 0 1 16.571 16.571 16.571 16.571 0 0 1 -15.39 16.529z"/><path d="m280 96h-48v-48a24 24 0 0 1 24-24 24 24 0 0 1 24 24z"/><path d="m200 112a8 8 0 0 1 -8-8v-40a8 8 0 0 1 16 0v40a8 8 0 0 1 -8 8z"/><path d="m312 112a8 8 0 0 1 -8-8v-40a8 8 0 0 1 16 0v40a8 8 0 0 1 -8 8z"/></g><path d="m328 160v18.86l-72 5.14-72-5.14v-18.86z" fill="#fec093"/><circle cx="220" cy="180" fill="#6e3d26" r="12"/><circle cx="292" cy="180" fill="#6e3d26" r="12"/><path d="m288 392h64v32h-64z" fill="#b8b8b6"/><path d="m276.422 216.845a68.118 68.118 0 0 1 -30.311 7.155h-6.111v16h6.111a84.206 84.206 0 0 0 37.467-8.845z" fill="#f7ad7c"/><rect fill="#bec134" height="104" rx="8" width="16" x="248" y="384"/></g></svg>